# xmcd
#
# Track frame offsets:
#  150
#  11429
#  22978
#  36622
#  47517
#  59677
#  73314
#  86258
#  99186
#  111746
#  121584
#  133041
#
# Disc length: 1937 seconds
#
# Revision: 0
# Processed by: cddbd v1.5.2PL0 Copyright (c) Steve Scherf et al.
# Submitted via: Collectorz.com_Music_Collector 6.9
#
DISCID=a0078f0c
DTITLE=Al Martino - Living A Lie
DYEAR=1900
DGENRE=
TTITLE0=Living A Lie
TTITLE1=Mexicali Rose
TTITLE2=Vaya Con Dios
TTITLE3=That's My Desire
TTITLE4=Room Full Of Roses
TTITLE5=I'm In The Mood For Love
TTITLE6=Don't Cry Joe
TTITLE7=The More I See You
TTITLE8=You Can't Hide The Truth
TTITLE9=Lies
TTITLE10=Careless
TTITLE11=Are You Lonesome Tonight
EXTD=
EXTT0=
EXTT1=
EXTT2=
EXTT3=
EXTT4=
EXTT5=
EXTT6=
EXTT7=
EXTT8=
EXTT9=
EXTT10=
EXTT11=
PLAYORDER=
